<?xml version="1.0" encoding="UTF-8"?>
<svg id="Layer_1" data-name="Layer 1" xmlns="http://www.w3.org/2000/svg" viewBox="0 0 1080 259.42">
  <g>
    <path d="M56.85,50.45l-8.29-.89.13-1.15h34.81v1.15l-9.18.89c-4.59.51-5.36,1.78-5.36,34.94,0,7.4.38,13.9.38,19.26,0,16.07-12.11,32.26-24.87,32.77l-.51-4.59c17.73-1.53,19.26-4.08,19.26-45.27,0-35.58.13-36.47-6.38-37.11Z"/>
    <path d="M113.37,126.19c-16.45,0-27.42-12.5-27.42-32.26,0-16.45,10.71-29.59,32.39-29.59,16.58,0,27.16,9.82,27.16,26.78,0,20.53-13.39,35.07-32.14,35.07ZM118.22,122.88c14.28,0,20.79-9.44,20.79-28.18s-9.31-28.57-24.1-28.57c-13.64,0-22.7,7.91-22.7,24.87,0,19.89,9.44,31.88,26.01,31.88Z"/>
    <path d="M195.23,67.54c-.38,6.25-.76,13.64-.89,20.02h-1.02l-1.02-8.29c-1.4-10.46-8.03-13.14-17.34-13.14-8.29,0-13.9,4.59-13.9,10.97,0,8.29,7.01,11.22,16.19,14.41,10.58,3.57,20.79,7.27,20.79,17.73,0,8.29-8.93,16.96-24.99,16.96-8.03,0-14.79-2.81-18.36-5.23.26-4.46.64-10.97.64-18.75h1.15l.77,7.27c1.15,10.2,7.65,13.39,20.4,13.39s16.19-3.83,16.19-10.46c0-8.54-8.8-11.6-19.13-14.92-10.2-3.57-18.24-7.4-18.24-16.96,0-8.8,8.93-16.32,21.81-16.32,8.67,0,13.77,2.04,16.96,3.32Z"/>
    <path d="M262.68,86.92l-6.38,2.04-41.57-.38c-.13.89-.13,1.78-.13,2.81,0,19.77,10.2,29.46,25.25,29.46,11.6,0,18.36-5.1,22.7-18.24l.89.38c-4.08,16.96-12.88,23.21-26.65,23.21-17.73,0-28.69-12.24-28.69-32.26,0-16.96,11.22-29.59,31.63-29.59,14.15,0,23.59,7.91,22.95,22.57ZM214.74,87.81l37.62-1.15c2.81-.26,3.32-1.91,3.32-4.08,0-9.82-7.91-16.58-19.13-16.58-12.75,0-20.53,8.54-21.81,21.81Z"/>
    <path d="M307.69,44.33c-1.4-.26-2.3-.38-3.32-.38-13.01.38-18.49,4.46-18.49,14.03,0,2.04.38,4.46,1.15,7.65h20.53l-1.4,5.1c-6.12-.38-12.37-.64-18.62-.64,0,51.9,0,52.28,3.83,52.67l11.48,1.02v1.15h-32.52v-1.15l4.59-.51c6.63-.76,6.89-1.15,6.89-25.25,0-13.26-.38-22.32-.51-27.93-3.83,0-7.65,0-11.35.13v-1.02c5.99-1.02,9.31-1.66,11.22-3.19v-.77c0-13.64,12.5-27.16,26.4-27.16l.13,6.25Z"/>
    <path d="M331.79,122.63l7.52,1.15v1.15h-28.56v-1.15l4.97-.64c6.12-.77,6.25-1.02,6.25-26.01s-.26-24.74-5.1-24.99l-6.12-.26v-1.15c7.4-1.78,12.11-3.57,16.45-5.74l.76.38c0,9.31-.13,15.81-.13,24.36,0,31.5.51,32.26,3.95,32.9ZM318.27,46.24c0-3.7,2.42-5.48,6.12-5.48,3.19,0,5.23,1.66,5.23,4.85,0,3.7-2.42,5.48-6.25,5.48-3.06,0-5.1-1.66-5.1-4.85Z"/>
    <path d="M360.48,65.37l-.38,16.83.64.13c2.42-9.56,11.35-17.98,25.89-17.98,12.63,0,17.47,5.36,17.47,15.81,0,6.89-.26,15.05-.26,21.93,0,17.34.51,20.02,4.21,20.78l6.12.89v1.15h-31.24v-1.15l10.97-1.15c3.95-.51,4.08-2.55,4.08-29.59,0-18.49-1.66-24.23-14.92-24.23-10.97,0-22.57,5.87-22.57,20.66,0,31.37.51,32.52,3.95,33.03l11.6,1.27v1.15h-32.65v-1.15l4.72-.51c6.38-.89,6.5-1.27,6.5-26.01s-.38-24.87-5.1-25.12l-6.12-.26v-1.15c7.14-1.66,12.11-3.57,16.2-5.74l.89.38Z"/>
    <path d="M458.66,113.44h-.51c-3.06,6.89-11.35,12.75-20.66,12.75-11.35,0-17.98-5.99-17.98-13.01s9.82-10.84,39.4-16.7v-7.14c0-16.32-2.3-21.93-13.39-21.93s-16.71,4.46-16.71,14.92c0,2.04.26,4.97.64,7.91l-7.14,1.28c-.13-18.75,13.64-27.16,25.76-27.16s16.83,4.97,16.83,17.47c-.13,3.7-.38,10.33-.38,15.68,0,20.4.77,23.46,4.34,23.46,3.83,0,5.87-3.57,7.14-18.87l1.27.13c-1.53,17.09-3.83,23.34-10.71,23.34-4.85,0-7.65-3.32-7.91-12.11ZM458.41,109.87c.51-2.55.51-4.34.51-10.46-11.73,1.66-21.93,3.7-28.82,5.87-3.19,1.02-4.72,2.55-4.72,4.85,0,6.38,5.48,10.33,16.32,10.33,6.25,0,15.56-3.19,16.7-10.58Z"/>
  </g>
  <g>
    <path d="M684.06,124.32h-41.19v-1.18l7.98-1.18c7.19-1.31,6.67-5.1,11.11-71.79-1.7-1.18-4.05-1.83-7.58-2.22l-8.11-.92v-1.18h24.06c10.46,25.5,21.71,49.56,31.77,68.26,14.25-29.29,20.27-42.23,31.51-68.26h21.18l.13,1.18-8.24,1.05c-6.8.78-6.8,1.7-5.23,36.74,1.31,35.7,1.44,35.96,9.28,37.27l7.32,1.04v1.18h-41.97l-.13-1.18,12.68-1.04c8.37-.79,8.24-1.83,6.8-36.88-.92-23.4-1.31-31.12-1.57-34.13-11.77,24.06-18.18,38.31-34,73.22h-1.05c-9.68-21.57-22.36-50.73-32.56-69.04-.92-1.7-1.83-3.01-2.88-4.05-1.83,65.77-2.35,69.3,5.23,70.35l15.43,1.57v1.18Z"/>
    <path d="M783.56,121.96l7.72,1.18v1.18h-29.29v-1.18l5.1-.65c6.28-.79,6.41-1.05,6.41-26.67s-.26-25.37-5.23-25.63l-6.28-.26v-1.18c7.58-1.83,12.42-3.66,16.87-5.88l.78.39c0,9.55-.13,16.21-.13,24.97,0,32.3.52,33.08,4.05,33.74ZM769.7,43.64c0-3.79,2.48-5.62,6.28-5.62,3.27,0,5.36,1.7,5.36,4.97,0,3.79-2.48,5.62-6.41,5.62-3.14,0-5.23-1.7-5.23-4.97Z"/>
    <path d="M820.03,148.24c-18.31,0-24.71-4.18-24.71-10.98,0-6.28,7.72-10.59,16.74-13.08v-.52c-8.24-.26-11.9-3.53-11.9-7.32,0-4.58,5.88-8.89,17-10.33v-.52c-10.85-2.22-16.48-9.81-16.48-19.87,0-11.64,11.64-22.1,26.54-22.1h33.08l-1.57,6.28c-9.41-1.18-18.31-4.05-26.41-5.23l-.13.79c9.41,2.35,19.35,7.85,19.35,19.74,0,9.81-10.59,21.18-26.94,21.18-14.65,0-18.83,4.45-18.83,7.71,0,2.75,2.88,4.58,9.28,4.58,10.33,0,21.44-.79,32.17-.79,8.63,0,12.55,3.01,12.55,8.63,0,9.94-13.86,21.84-39.75,21.84ZM855.21,129.81c0-3.79-2.48-6.28-9.02-6.28-8.89,0-19.22.13-28.37.13-10.07.92-16.21,6.28-16.21,10.98s4.97,8.89,24.06,8.89c22.36,0,29.55-5.1,29.55-13.73ZM827.36,103.79c13.08,0,17.52-5.49,17.52-16.61,0-13.86-6.93-21.84-19.35-21.84-9.81,0-18.44,4.58-18.44,17.26,0,13.6,6.28,21.18,20.27,21.18Z"/>
    <path d="M869.98,70.05l-6.54-.13v-1.18c8.76-2.22,12.81-3.66,16.87-5.88l.78.39c-.13,18.18-.13,25.76-.13,33.47,0,18.18,1.7,24.19,15.43,24.19,11.11,0,23.01-5.75,23.01-20.01,0-29.42-.52-30.07-5.49-30.6l-10.72-.52v-1.05c12.42-1.7,16.87-2.88,21.18-6.02l.92.26c0,16.34.13,21.31.13,27.98,0,29.16.65,29.16,6.54,30.86l5.36,1.44v1.05h-17.78v-16.35l-.52-.13c-2.62,9.41-12.42,17.78-26.41,17.78s-17.91-5.75-17.91-16.87c0-6.02.26-13.08.26-16.08,0-21.31-.39-22.36-4.97-22.62Z"/>
    <path d="M999.29,85.35l-6.54,2.09-42.63-.39c-.13.92-.13,1.83-.13,2.88,0,20.27,10.46,30.21,25.89,30.21,11.9,0,18.83-5.23,23.28-18.7l.92.39c-4.18,17.39-13.21,23.8-27.33,23.8-18.18,0-29.42-12.55-29.42-33.08,0-17.39,11.51-30.34,32.43-30.34,14.51,0,24.19,8.11,23.54,23.14ZM950.12,86.27l38.57-1.18c2.88-.26,3.4-1.96,3.4-4.19,0-10.07-8.11-17-19.61-17-13.08,0-21.05,8.76-22.36,22.36Z"/>
    <path d="M1012.88,42.98l-6.28-.52v-1.18c11.51-1.7,14.25-2.88,16.61-6.02l1.05.26c-.13,14.51-.13,28.51-.13,43.15,0,41.71,0,42.1,3.66,43.02l8.24,1.44v1.18h-29.55v-1.18l5.49-.65c6.02-.79,6.15-1.18,6.15-26.81,0-51.39-.26-52.04-5.23-52.7Z"/>
  </g>
  <path d="M524.12,172.68c3,.58,5.99.75,8.98.92,9.38.92,18.76,1.44,28.13,1.56,11.37-.1,22.73-.79,33.88-3.08,11.35-2.49,21.68-6.96,29.78-15.6,1.98-2.21,3.75-4.42,5.13-7.02.39-.6.78-1.4.98-2.2,1.37-3.4,1.94-6.8-1.08-9.76,2.19-.42,3.8.97,4.21,3.16.22,1.99-.17,3.99-.95,5.99-1.37,3.6-3.53,6.81-6.3,9.82-5.93,6.63-13.47,11.08-21.82,14.14-7.16,2.45-14.32,3.91-21.7,4.57-13.75,1.31-27.71,1.43-41.48.55-5.99-.55-11.97-1.09-17.96-1.64-1.6.01-2.59.22-3.78,1.23-19.01,15.52-40.86,25.87-63.73,34.04-8.55,3.06-17.1,5.73-26.07,7-9.76,1.48-19.73,1.76-29.52-.35-5.6-1.35-10.8-3.7-15.22-7.45-3.21-2.76-5.43-5.94-6.86-9.71-1.84-4.97-1.28-9.36,1.88-13.58,4.33-6.22,10.28-10.26,17.44-12.91,9.74-3.47,19.7-5.35,30.06-6.04,10.76-.69,21.54.22,32.31.92,17.76,1.45,35.32,3.09,52.89,4.74,2,.18,3.59-.23,5.17-1.64,11.29-9.47,20.77-20.32,29.64-31.96,12.63-16.26,23.65-33.9,35.47-50.75,0-.2.39-.6.19-1-.99.21-1.59.81-2.18,1.42-6.54,5.04-12.47,10.87-18.61,16.31-6.13,5.83-12.87,11.08-19.81,15.92-1.59,1.21-3.37,2.22-5.16,3.03-1.19.41-2.19.62-3.19-.17-.8-.79-.61-1.99-.22-2.99.38-1.8,1.17-3.2,1.95-4.8,2.75-5.41,5.9-10.42,9.44-15.44,2.76-4.01,5.91-8.23,8.27-12.63.79-1.4,1.17-3.2,2.35-4.61.59-.6.99-1.4,1.99-1.01,1,.39,1.41,1.19,1.22,2.18-.38,2.2-.76,4.4-1.94,6.4-5.3,9.42-12.41,17.85-18.32,26.88-.98,1.6-1.97,3.01-2.55,4.61.6.79,1.2.19,1.59-.01,1.59-1.01,3.18-1.82,4.56-2.83,9.12-6.26,17.24-13.71,25.35-21.35,5.14-4.83,10.49-9.26,16.04-13.7.99-.81,1.78-1.41,2.57-2.42.79-.8,1.79-.61,2.79-.42,1,.39.61,1.39.62,2.19,0,1-.38,2-.97,3-.98,1.8-1.76,3.6-2.95,5.41-8.27,12.63-15.94,25.66-25.21,37.9-6.9,9.23-13.8,18.66-21.71,27.3-4.54,5.03-9.29,9.65-14.44,14.28-.4.4-1.19.61-1.18,1.6ZM513.76,173.77c-.41-.79-1-.59-1.6-.78-2.79-.18-5.59-.35-8.18-.73-17.76-1.45-35.33-3.29-53.09-4.54-9.38-.72-18.55-.84-27.92.03-9.37.88-18.32,2.95-27.07,6.61-5.76,2.44-10.32,6.27-14.07,11.29-2.56,3.81-3.12,8-1.29,12.37,1.23,3.38,3.64,6.35,6.45,8.72,5.22,4.34,11.42,6.48,18.01,7.23,12.18,1.29,24.13-.4,35.66-4.09,13.73-4.3,26.84-9.6,39.75-15.69,10.92-5.28,21.24-11.15,30.96-18.41.79-.6,1.99-1.01,2.38-2.01Z"/>
</svg>